<svg width="33" height="32" viewBox="0 0 33 32" fill="none" xmlns="http://www.w3.org/2000/svg">
<g clip-path="url(#clip0_4492_1993)">
<path d="M0.5 16C0.5 7.16343 7.66343 0 16.5 0C25.3366 0 32.5 7.16343 32.5 16C32.5 24.8366 25.3366 32 16.5 32C7.66343 32 0.5 24.8366 0.5 16Z" fill="#333333"/>
<path fill-rule="evenodd" clip-rule="evenodd" d="M16.1762 0C16.1006 6.58251 15.6702 10.2664 13.2183 12.7183C10.7664 15.1702 7.08251 15.6006 0.5 15.6762V16.6315C7.08251 16.707 10.7664 17.1375 13.2183 19.5894C15.6317 22.0028 16.0866 25.6099 16.1724 32H17.1353C17.221 25.6099 17.6759 22.0028 20.0894 19.5894C22.5028 17.1759 26.1099 16.721 32.5 16.6353V15.6723C26.1099 15.5866 22.5028 15.1317 20.0894 12.7183C17.6375 10.2664 17.207 6.58251 17.1315 0H16.1762Z" fill="white"/>
</g>
<defs>
<clipPath id="clip0_4492_1993">
<rect width="32" height="32" fill="white" transform="translate(0.5)"/>
</clipPath>
</defs>
</svg>
